<svg xmlns="http://www.w3.org/2000/svg" width="110" height="121.031" viewBox="0 0 110 121.031">
  <defs>
    <style>
      .cls-1 {
        fill-rule: evenodd;
      }
    </style>
  </defs>
  <path class="cls-1" d="M1053.49,358.11a5.87,5.87,0,0,1-4.39,1.9H950.9a5.826,5.826,0,0,1-5.9-5.748,5.705,5.705,0,0,1,.031-0.679l7.584-81.419a6.721,6.721,0,0,1,6.649-6.04H971.88a29.247,29.247,0,0,1,58.34,0h10.52a6.806,6.806,0,0,1,6.65,6.04l7.59,81.42A5.833,5.833,0,0,1,1053.49,358.11Zm-52.44-114.939h-0.01a25.085,25.085,0,0,0-24.974,22.951h49.954A25.084,25.084,0,0,0,1001.05,243.171Zm49.76,110.8h0l-7.59-81.42a2.609,2.609,0,0,0-2.48-2.254H959.263a2.578,2.578,0,0,0-2.488,2.255l-7.585,81.419a1.651,1.651,0,0,0,1.42,1.855,1.562,1.562,0,0,0,.29.013h98.2a1.65,1.65,0,0,0,1.73-1.561A1.585,1.585,0,0,0,1050.81,353.968Zm-29.22-46.04a1.607,1.607,0,0,1-1.13.466,1.59,1.59,0,0,1-1.13-.466l-3.85-3.85-3.86,3.85a1.592,1.592,0,1,1-2.25-2.252l3.85-3.85-3.85-3.85a1.592,1.592,0,0,1,2.25-2.252l3.86,3.85,3.85-3.85a1.6,1.6,0,0,1,2.26,2.252l-3.86,3.85,3.86,3.85A1.6,1.6,0,0,1,1021.59,307.928Zm-5.83,17.237a2.422,2.422,0,0,1-3.13-.134,21.442,21.442,0,0,0-26.855,0,2.414,2.414,0,0,1-3.124.134c-0.793-.759-0.557-2.284.625-3.235a25.435,25.435,0,0,1,31.854,0C1016.31,322.881,1016.55,324.406,1015.76,325.165Zm-25.791-17.237a1.6,1.6,0,0,1-2.254,0l-3.854-3.85-3.855,3.85a1.593,1.593,0,1,1-2.254-2.252l3.854-3.85-3.854-3.85a1.593,1.593,0,1,1,2.254-2.252l3.855,3.85,3.854-3.85a1.593,1.593,0,1,1,2.254,2.252l-3.854,3.85,3.854,3.85A1.59,1.59,0,0,1,989.969,307.928Z" transform="translate(-945 -238.969)"/>
</svg>