<?xml version="1.0" encoding="utf-8"?>
<!-- Generator: Adobe Illustrator 19.0.0, SVG Export Plug-In . SVG Version: 6.00 Build 0)  -->
<svg version="1.1" id="layer" xmlns="http://www.w3.org/2000/svg" xmlns:xlink="http://www.w3.org/1999/xlink" x="0px" y="0px"
	 viewBox="-153 -46 652 652" style="enable-background:new -153 -46 652 652;" xml:space="preserve">
<style type="text/css">
	.st0{fill:#00C3F7;}
	.st1{fill:#011B33;}
</style>
<path class="st0" d="M-45.8,232.2h-80.4c-2.7,0-5,2.3-5,5.1v9.1c0,2.8,2.3,5.1,5,5.1h80.4c2.8,0,5-2.3,5.1-5.1v-9
	C-40.7,234.5-43,232.2-45.8,232.2L-45.8,232.2z M-45.8,282.7h-80.4c-1.3,0-2.6,0.5-3.5,1.5c-1,1-1.5,2.2-1.5,3.6v9.1
	c0,2.8,2.3,5.1,5,5.1h80.4c2.8,0,5-2.2,5.1-5.1v-9.1C-40.8,284.9-43,282.7-45.8,282.7L-45.8,282.7z M-80.9,307.9h-45.3
	c-1.3,0-2.6,0.5-3.5,1.5c-0.9,1-1.5,2.2-1.5,3.6v9.1c0,2.8,2.3,5.1,5,5.1H-81c2.8,0,5-2.3,5-5v-9.1
	C-75.9,310.1-78.1,307.8-80.9,307.9L-80.9,307.9z M-40.7,257.4h-85.5c-1.3,0-2.6,0.5-3.5,1.5c-0.9,1-1.5,2.2-1.5,3.6v9.1
	c0,2.8,2.3,5.1,5,5.1h85.4c2.8,0,5-2.3,5-5.1v-9.1C-35.7,259.7-38,257.5-40.7,257.4L-40.7,257.4z M-40.7,257.4"/>
<path class="st1" d="M52.8,252.6c-2.5-2.6-5.4-4.6-8.7-6c-3.3-1.4-6.8-2.1-10.4-2.1c-3.5-0.1-6.9,0.7-10.1,2.2c-2.1,1-4,2.4-5.6,4.1
	v-1.6c0-0.8-0.3-1.6-0.8-2.2c-0.5-0.6-1.3-1-2.2-1H3.9c-0.8,0-1.6,0.3-2.1,1c-0.6,0.6-0.9,1.4-0.8,2.2v74.8c0,0.8,0.3,1.6,0.8,2.2
	c0.6,0.6,1.3,0.9,2.1,0.9h11.4c0.8,0,1.5-0.3,2.1-0.9c0.6-0.5,1-1.3,0.9-2.2v-25.6c1.6,1.8,3.7,3.1,6,3.9c3,1.1,6.1,1.7,9.3,1.7
	c3.6,0,7.2-0.7,10.5-2.1c3.3-1.4,6.3-3.4,8.8-6c2.6-2.7,4.6-5.9,6-9.4c1.6-3.9,2.3-8.1,2.2-12.3c0.1-4.2-0.7-8.4-2.2-12.4
	C57.4,258.5,55.4,255.3,52.8,252.6L52.8,252.6z M42.6,279.7c-0.6,1.6-1.5,3-2.7,4.3c-2.3,2.5-5.6,3.9-9,3.9c-1.7,0-3.4-0.3-5-1.1
	c-1.5-0.7-2.9-1.6-4.1-2.8c-1.2-1.2-2.1-2.7-2.7-4.3c-1.3-3.4-1.3-7.1,0-10.5c0.6-1.6,1.6-3,2.7-4.2c1.2-1.2,2.6-2.2,4.1-2.9
	c1.6-0.7,3.3-1.1,5-1.1c1.8,0,3.4,0.3,5.1,1.1c1.5,0.7,2.9,1.6,4,2.8c1.2,1.2,2,2.6,2.7,4.2C43.9,272.6,43.8,276.3,42.6,279.7
	L42.6,279.7z M122.2,246.1h-11.3c-0.8,0-1.6,0.3-2.1,0.9c-0.6,0.6-0.9,1.4-0.9,2.3v1.4c-1.4-1.7-3.2-3-5.1-3.9
	c-3.1-1.5-6.5-2.2-9.9-2.2c-7.3,0-14.2,2.9-19.4,8c-2.7,2.7-4.8,5.9-6.2,9.4c-1.6,3.9-2.4,8.1-2.3,12.4c-0.1,4.2,0.7,8.4,2.3,12.4
	c1.5,3.5,3.5,6.7,6.2,9.4c5.1,5.2,12.1,8.1,19.3,8.1c3.4,0.1,6.8-0.7,9.9-2.2c1.9-1,3.8-2.3,5.2-3.9v1.5c0,0.8,0.3,1.6,0.9,2.2
	c0.6,0.5,1.3,0.9,2.1,0.9h11.3c0.8,0,1.6-0.3,2.1-0.9c0.6-0.6,0.9-1.4,0.9-2.2v-50.3c0-0.8-0.3-1.6-0.8-2.2
	C123.8,246.5,123,246.1,122.2,246.1L122.2,246.1z M106.9,279.7c-0.6,1.6-1.5,3-2.7,4.3c-1.2,1.2-2.5,2.2-4,2.9
	c-3.2,1.5-6.9,1.5-10.1,0c-1.5-0.7-2.9-1.7-4.1-2.9c-1.2-1.2-2.1-2.7-2.7-4.3c-1.2-3.4-1.2-7.1,0-10.5c0.6-1.6,1.5-2.9,2.7-4.2
	c1.2-1.2,2.5-2.2,4.1-2.9c3.2-1.5,6.9-1.5,10,0c1.5,0.7,2.9,1.6,4,2.8c1.1,1.2,2,2.6,2.7,4.2C108.2,272.6,108.2,276.3,106.9,279.7
	L106.9,279.7z M234.8,272.9c-1.6-1.4-3.5-2.6-5.5-3.4c-2.1-0.9-4.4-1.5-6.6-2l-8.6-1.7c-2.2-0.4-3.8-1-4.6-1.7
	c-0.7-0.5-1.2-1.3-1.2-2.2c0-0.9,0.5-1.7,1.6-2.4c1.5-0.8,3.1-1.2,4.8-1.1c2.2,0,4.4,0.5,6.4,1.3c2,0.9,3.9,1.8,5.7,3
	c2.5,1.6,4.7,1.3,6.2-0.5l4.1-4.7c0.8-0.8,1.2-1.8,1.3-2.9c-0.1-1.2-0.7-2.2-1.6-3c-1.7-1.5-4.5-3.1-8.2-4.7
	c-3.7-1.6-8.4-2.4-13.9-2.4c-3.4-0.1-6.7,0.4-9.9,1.4c-2.7,0.9-5.3,2.2-7.6,3.9c-2.1,1.6-3.7,3.6-4.9,6c-1.1,2.3-1.7,4.8-1.7,7.3
	c0,4.7,1.4,8.5,4.2,11.3c2.8,2.8,6.5,4.7,11.1,5.6l9,2c1.9,0.3,3.9,0.9,5.7,1.8c1,0.4,1.6,1.4,1.6,2.5c0,1-0.5,1.9-1.6,2.7
	c-1.1,0.8-2.9,1.3-5.3,1.3c-2.4,0-4.9-0.5-7.1-1.6c-2.1-1-4-2.3-5.8-3.8c-0.8-0.6-1.6-1.1-2.6-1.5c-1-0.3-2.3,0-3.6,1.1l-4.9,3.7
	c-1.4,1-2.1,2.7-1.7,4.3c0.3,1.7,1.6,3.3,4.1,5.2c6.2,4.2,13.6,6.4,21.1,6.2c3.5,0,7-0.4,10.3-1.4c2.9-0.9,5.6-2.2,8-4
	c2.2-1.6,4-3.7,5.2-6.2c1.2-2.4,1.8-5,1.8-7.7c0.1-2.4-0.4-4.8-1.4-7C237.7,276,236.4,274.3,234.8,272.9L234.8,272.9z M284.2,286.6
	c-0.5-0.9-1.4-1.5-2.5-1.7c-1,0-2.1,0.3-2.9,0.9c-1.4,0.9-3,1.4-4.6,1.5c-0.5,0-1.1-0.1-1.6-0.2c-0.6-0.1-1.1-0.4-1.5-0.8
	c-0.5-0.5-0.9-1.1-1.2-1.7c-0.4-1-0.6-2-0.5-3v-20.5H284c0.9,0,1.7-0.4,2.3-1c0.6-0.6,1-1.3,1-2.2v-8.7c0-0.9-0.3-1.7-1-2.2
	c-0.6-0.6-1.4-0.9-2.2-0.9h-14.7v-14c0-0.8-0.3-1.7-0.9-2.2c-0.6-0.5-1.3-0.8-2.1-0.9h-11.4c-0.8,0-1.6,0.3-2.2,0.9
	c-0.6,0.6-1,1.4-1,2.2v14h-6.5c-0.8,0-1.6,0.3-2.2,1c-0.5,0.6-0.8,1.4-0.8,2.2v8.7c0,0.8,0.3,1.6,0.8,2.2c0.5,0.7,1.3,1,2.2,1h6.5
	v24.4c-0.1,2.9,0.5,5.8,1.7,8.4c1.1,2.2,2.5,4.1,4.4,5.7c1.8,1.5,3.9,2.6,6.2,3.2c2.3,0.7,4.7,1.1,7.1,1.1c3.1,0,6.3-0.5,9.3-1.5
	c2.8-0.9,5.3-2.5,7.3-4.6c1.3-1.3,1.4-3.4,0.4-4.9L284.2,286.6z M346,246.1h-11.3c-0.8,0-1.5,0.3-2.1,0.9c-0.6,0.6-0.9,1.4-0.9,2.3
	v1.4c-1.4-1.7-3.1-3-5.1-3.9c-3.1-1.5-6.5-2.2-9.9-2.2c-7.3,0-14.2,2.9-19.4,8c-2.7,2.7-4.8,5.9-6.2,9.4c-1.6,3.9-2.4,8.1-2.3,12.3
	c-0.1,4.2,0.7,8.4,2.3,12.4c1.4,3.5,3.6,6.7,6.2,9.4c5.1,5.2,12,8.1,19.3,8.1c3.4,0.1,6.8-0.7,9.9-2.1c2-1,3.8-2.3,5.2-3.9v1.5
	c0,0.8,0.3,1.6,0.9,2.1c0.6,0.6,1.3,0.9,2.1,0.9H346c1.7,0,3-1.3,3-3v-50.3c0-0.8-0.3-1.6-0.8-2.2
	C347.7,246.5,346.9,246.1,346,246.1L346,246.1z M330.8,279.7c-0.6,1.6-1.5,3-2.7,4.3c-1.2,1.2-2.5,2.2-4,2.9
	c-1.6,0.7-3.3,1.1-5.1,1.1c-1.8,0-3.4-0.4-5-1.1c-1.5-0.7-2.9-1.7-4.1-2.9c-1.2-1.2-2.1-2.7-2.6-4.3c-1.2-3.4-1.2-7.1,0-10.5
	c0.6-1.6,1.5-3,2.6-4.2c1.2-1.2,2.6-2.2,4.1-2.9c1.6-0.7,3.3-1.1,5-1.1c1.7,0,3.4,0.3,5.1,1.1c1.5,0.7,2.8,1.6,4,2.8
	c1.2,1.2,2.1,2.6,2.7,4.2C332.1,272.5,332.1,276.3,330.8,279.7L330.8,279.7z M408,285.8l-6.5-5c-1.2-1-2.4-1.3-3.4-0.9
	c-0.9,0.4-1.7,1-2.4,1.7c-1.4,1.7-3.1,3.2-4.9,4.5c-2,1.1-4.1,1.7-6.3,1.5c-2.6,0-5-0.7-7.1-2.2c-2.1-1.5-3.7-3.5-4.5-6
	c-0.6-1.7-0.9-3.4-0.9-5.1c0-1.8,0.3-3.5,0.9-5.3c0.6-1.6,1.4-3,2.6-4.2c1.2-1.2,2.5-2.2,4-2.8c1.6-0.7,3.3-1.1,5.1-1.1
	c2.2-0.1,4.4,0.5,6.3,1.6c1.9,1.2,3.5,2.7,4.9,4.5c0.6,0.7,1.4,1.3,2.3,1.7c1,0.4,2.2,0.1,3.4-0.9l6.5-4.9c0.8-0.5,1.4-1.3,1.7-2.2
	c0.4-1,0.3-2.1-0.3-3c-2.5-3.9-5.9-7.1-10-9.4c-4.3-2.4-9.4-3.7-15.1-3.7c-4,0-8,0.8-11.8,2.3c-3.6,1.5-6.8,3.6-9.5,6.3
	c-2.7,2.7-4.9,5.9-6.4,9.5c-3.1,7.5-3.1,15.9,0,23.4c1.5,3.5,3.6,6.8,6.4,9.4c5.7,5.6,13.3,8.6,21.3,8.6c5.7,0,10.8-1.3,15.1-3.7
	c4.1-2.3,7.6-5.5,10.1-9.5c0.5-0.9,0.6-2,0.3-2.9C409.4,287.2,408.8,286.4,408,285.8L408,285.8z M468.2,297.5l-17.9-26.2l15.3-20.2
	c0.7-0.9,1-2.2,0.6-3.3c-0.3-0.8-1-1.6-2.9-1.6h-12.1c-0.7,0-1.4,0.2-2,0.5c-0.8,0.4-1.4,1-1.8,1.7l-12.2,17.1h-2.9v-40.4
	c0-0.8-0.3-1.6-0.9-2.2c-0.6-0.6-1.3-0.9-2.1-0.9h-11.3c-0.8,0-1.6,0.3-2.2,0.9c-0.6,0.6-0.9,1.3-0.9,2.2v74.5
	c0,0.9,0.3,1.6,0.9,2.2c0.6,0.6,1.4,0.9,2.2,0.9h11.3c0.8,0,1.6-0.3,2.1-0.9c0.6-0.6,0.9-1.4,0.9-2.2v-19.7h3.2l13.3,20.4
	c0.8,1.5,2.3,2.4,3.9,2.4h12.7c1.9,0,2.7-0.9,3.1-1.7C469,299.8,468.9,298.5,468.2,297.5L468.2,297.5z M186.4,246.1h-12.7
	c-1,0-1.9,0.3-2.6,1c-0.6,0.6-1,1.3-1.2,2.1l-9.4,34.8h-2.3l-10-34.8c-0.2-0.7-0.5-1.4-1-2.1c-0.6-0.7-1.4-1.1-2.3-1.1H132
	c-1.7,0-2.7,0.5-3.2,1.7c-0.3,1-0.3,2.1,0,3.1l16,49c0.3,0.7,0.6,1.5,1.2,2c0.6,0.6,1.5,0.9,2.4,0.9h6.8l-0.6,1.6l-1.5,4.5
	c-0.5,1.4-1.3,2.6-2.5,3.5c-1.1,0.8-2.4,1.3-3.8,1.2c-1.2,0-2.3-0.3-3.4-0.7c-1.1-0.5-2.1-1.1-3-1.8c-0.8-0.6-1.8-0.9-2.9-0.9h-0.1
	c-1.2,0.1-2.3,0.7-2.9,1.8l-4,5.9c-1.6,2.6-0.7,4.2,0.3,5.1c2.2,2,4.7,3.5,7.5,4.4c3.1,1.1,6.3,1.6,9.5,1.6c5.8,0,10.6-1.6,14.3-4.7
	c3.8-3.4,6.7-7.8,8.1-12.8l18.6-60.6c0.4-1.1,0.5-2.2,0.1-3.2C188.8,246.9,188.1,246.1,186.4,246.1L186.4,246.1z M186.4,246.1"/>
</svg>
